<svg xmlns="http://www.w3.org/2000/svg" viewBox="0 0 179.57 213.54"><defs><style>.cls-1,.cls-10,.cls-11,.cls-5,.cls-6,.cls-7,.cls-8{stroke:#000;}.cls-1,.cls-10,.cls-11,.cls-5,.cls-9{stroke-linecap:round;}.cls-1,.cls-10,.cls-11,.cls-5,.cls-6,.cls-7,.cls-8,.cls-9{stroke-linejoin:round;}.cls-1,.cls-5{stroke-width:3.87px;}.cls-2,.cls-3,.cls-4{fill:#fff;}.cls-2,.cls-3,.cls-9{stroke:#fff;}.cls-2,.cls-3{stroke-miterlimit:10;}.cls-2{stroke-width:9px;}.cls-10,.cls-3,.cls-7,.cls-9{stroke-width:3px;}.cls-10,.cls-5,.cls-7,.cls-8,.cls-9{fill:none;}.cls-11,.cls-6{stroke-width:2px;}.cls-8{stroke-width:2.99px;}</style></defs><g id="Layer_2" data-name="Layer 2"><g id="Layer_2-2" data-name="Layer 2"><circle class="cls-1" cx="88.22" cy="86.76" r="84.82"/><path class="cls-2" d="M170.18,80.45c-2.07.46-4.9,2.38-8.4,6.89,2.58-3.11,4.31-36.34-17.52-5.82,3-4.73-11.63-48-31.2-10.3,0,0-17.41-4.38-23.34-4.38s-23.35,4.38-23.35,4.38c-19.57-37.7-34.23,5.57-31.2,10.3C13.34,51,15.07,84.23,17.65,87.34c-3.72-4.79-6.7-6.65-8.81-7a5.9,5.9,0,0,1-.11,1.16,23.58,23.58,0,0,0-.3,5.82c.49,1.22,1,2.48,1.52,3.77H168a23.7,23.7,0,0,1,2.28-7.25A21.73,21.73,0,0,1,170.18,80.45Z" transform="translate(-1.5)"/><path class="cls-2" d="M161.78,87.34s-2.08,16.21-14.95,19.59c-25.82,6.8-38.35-14.68-42.26-11.29-2,1.72.74,10.54-13.62,12.42H89.08c-14.37-1.88-11.63-10.7-13.62-12.42C71.54,92.25,59,113.73,33.2,106.93c-12.87-3.38-15.55-19.59-15.55-19.59" transform="translate(-1.5)"/><path class="cls-2" d="M35.17,81.52c-2.29.8,16.36-8.62,31.2-10.3" transform="translate(-1.5)"/><path class="cls-2" d="M143.88,81.52c2.29.8-16.35-8.62-31.2-10.3" transform="translate(-1.5)"/><path class="cls-2" d="M75.79,69a28,28,0,0,1,11.9,8.7l1,6.49a6.81,6.81,0,0,1,4.38,0" transform="translate(-1.5)"/><path class="cls-2" d="M105.22,69.25s-6,1.7-11.6,8.48l-1,6.49a6.79,6.79,0,0,0-4.37,0" transform="translate(-1.5)"/><path class="cls-2" d="M48.59,88s11.85,11.06,22-3.79" transform="translate(-1.5)"/><path class="cls-2" d="M132.29,88s-11.86,11.06-22-3.79" transform="translate(-1.5)"/><path class="cls-3" d="M19.5,135.17c-.59-1.57,4.33-14.71,13.93-14.31a15.83,15.83,0,0,1,15.16,14.5c.48,6,4.8,28,7.24,29.74" transform="translate(-1.5)"/><path class="cls-2" d="M50.68,137.05s14,.94,21.91,12.24c0,0-.57-25.6,17.13-3.39" transform="translate(-1.5)"/><path class="cls-3" d="M160.3,135.17c.6-1.57-4.33-14.71-13.93-14.31a15.82,15.82,0,0,0-15.15,14.5c-.48,6-4.8,28-7.25,29.74" transform="translate(-1.5)"/><path class="cls-2" d="M129.13,137.05s-14,.94-21.91,12.24c0,0,.57-25.6-17.13-3.39" transform="translate(-1.5)"/><ellipse class="cls-4" cx="25.85" cy="133.35" rx="3.79" ry="4.38"/><ellipse class="cls-2" cx="37.27" cy="133.36" rx="3.79" ry="5.28"/><path class="cls-4" d="M40.68,148.44c-2.18-4.49-3.19-8.49-10.32-5a4.51,4.51,0,0,0-2.56,3.34l1,.52a27.33,27.33,0,0,1,4.55,2.7,95.74,95.74,0,0,1,8.5,6.82C42.79,154.63,42.2,151.57,40.68,148.44Z" transform="translate(-1.5)"/><ellipse class="cls-2" cx="150.95" cy="133.35" rx="3.79" ry="4.38"/><ellipse class="cls-2" cx="139.53" cy="133.36" rx="3.79" ry="5.28"/><path class="cls-4" d="M144,153.6c2.51-2,4.52-5.6,7.55-7.67l.22-.13a4.49,4.49,0,0,0-2.28-2.39c-7.13-3.46-8.14.54-10.32,5-1.81,3.72-2.29,7.35-.41,9.46C140.17,156.25,142.13,155.08,144,153.6Z" transform="translate(-1.5)"/><path class="cls-2" d="M116.35,123.31S100.9,127,90,118.51h-.36c-10.91,8.47-26.36,4.8-26.36,4.8" transform="translate(-1.5)"/><path class="cls-4" d="M174.23,83.4c-.06-3.26-4.55-6.23-12.45,3.94,2.58-3.11,4.31-36.34-17.52-5.82,3-4.73-11.63-48-31.2-10.3,0,0-17.41-4.38-23.34-4.38s-23.35,4.38-23.35,4.38c-19.57-37.7-34.23,5.57-31.2,10.3C13.34,51,15.07,84.23,17.65,87.34,9.75,77.17,5.15,80.14,5.2,83.4c.41,29.07,10.71,50.81,26.05,65.44a5.56,5.56,0,0,1,.66.62C80,194.23,175.81,170.37,174.23,83.4Z" transform="translate(-1.5)"/><path class="cls-4" d="M161.78,87.34s-2.08,16.21-14.95,19.59c-25.82,6.8-38.35-14.68-42.26-11.29-2,1.72.74,10.54-13.62,12.42H89.08c-14.37-1.88-11.63-10.7-13.62-12.42C71.54,92.25,59,113.73,33.2,106.93c-12.87-3.38-15.55-19.59-15.55-19.59" transform="translate(-1.5)"/><path class="cls-4" d="M35.17,81.52c-2.29.8,16.36-8.62,31.2-10.3" transform="translate(-1.5)"/><path class="cls-4" d="M143.88,81.52c2.29.8-16.35-8.62-31.2-10.3" transform="translate(-1.5)"/><path class="cls-4" d="M75.79,69a28,28,0,0,1,11.9,8.7l1,6.49a6.81,6.81,0,0,1,4.38,0" transform="translate(-1.5)"/><path class="cls-4" d="M105.22,69.25s-6,1.7-11.6,8.48l-1,6.49a6.79,6.79,0,0,0-4.37,0" transform="translate(-1.5)"/><path class="cls-4" d="M48.59,88s11.85,11.06,22-3.79" transform="translate(-1.5)"/><path class="cls-4" d="M132.29,88s-11.86,11.06-22-3.79" transform="translate(-1.5)"/><path class="cls-4" d="M19.5,135.17c-.59-1.57,4.33-14.71,13.93-14.31a15.83,15.83,0,0,1,15.16,14.5c.48,6,4.8,28,7.24,29.74" transform="translate(-1.5)"/><path class="cls-4" d="M50.68,137.05s14,.94,21.91,12.24c0,0-.57-25.6,17.13-3.39" transform="translate(-1.5)"/><path class="cls-4" d="M160.3,135.17c.6-1.57-4.33-14.71-13.93-14.31a15.82,15.82,0,0,0-15.15,14.5c-.48,6-4.8,28-7.25,29.74" transform="translate(-1.5)"/><path class="cls-4" d="M129.13,137.05s-14,.94-21.91,12.24c0,0,.57-25.6-17.13-3.39" transform="translate(-1.5)"/><ellipse class="cls-4" cx="25.85" cy="133.35" rx="3.79" ry="4.38"/><ellipse class="cls-4" cx="37.27" cy="133.36" rx="3.79" ry="5.28"/><path class="cls-4" d="M40.68,148.44c-2.18-4.49-3.19-8.49-10.32-5a4.49,4.49,0,0,0-2.44,2.84,15.2,15.2,0,0,1,2.44,2l.49.3a5,5,0,0,1,2,2.33c.32.37.65.73,1,1.09,2.18,2.31,5.14,3.57,7.49,5.68C42.93,155.51,42.42,152,40.68,148.44Z" transform="translate(-1.5)"/><ellipse class="cls-4" cx="150.95" cy="133.35" rx="3.79" ry="4.38"/><ellipse class="cls-4" cx="139.53" cy="133.36" rx="3.79" ry="5.28"/><path class="cls-4" d="M144.77,151.17c2.4-1.75,4.3-4,6.86-5.59a4.5,4.5,0,0,0-2.18-2.17c-7.13-3.46-8.14.54-10.32,5-1.4,2.87-2,5.69-1.34,7.8C140,154.38,142.42,152.89,144.77,151.17Z" transform="translate(-1.5)"/><path class="cls-4" d="M116.35,123.31S100.9,127,90,118.51h-.36c-10.91,8.47-26.36,4.8-26.36,4.8" transform="translate(-1.5)"/><circle class="cls-5" cx="88.22" cy="86.76" r="84.82"/><path class="cls-6" d="M18,86.8S11.07,51.05,35.49,81c0,0,26.6-12,40.62-12.49l11,7.71,1.43,7.48H93l1-6.49,10-8.7L144.2,81s23-30.44,17.9,5.82c0,0-9.29,39.92-56.56,5.19,1.31.91-15.78,31.32-31.22.57C74.25,94,29.31,126.51,18,86.8Z" transform="translate(-1.5)"/><path class="cls-7" d="M90,66.3c-5.93,0-23.34,4.38-23.34,4.38C47.12,33,32.46,76.25,35.49,81,13.66,50.46,15.39,83.69,18,86.8,10.06,76.63,5.52,82.86,5.52,82.86" transform="translate(-1.5)"/><path class="cls-7" d="M174.55,82.86S170,76.63,162.1,86.8c2.58-3.11,4.31-36.34-17.53-5.82,3-4.73-11.62-48-31.2-10.3,0,0-17.4-4.38-23.34-4.38" transform="translate(-1.5)"/><path class="cls-8" d="M162.1,86.8s-2.08,16.2-15,19.59c-25.82,6.8-38.34-14.68-42.26-11.29-2,1.72.75,10.54-13.62,12.42H89.4C75,105.64,77.76,96.82,75.78,95.1c-3.92-3.39-16.44,18.09-42.26,11.29C20.64,103,18,86.8,18,86.8" transform="translate(-1.5)"/><path class="cls-7" d="M35.49,81c-2.29.8,16.35-8.62,31.2-10.3" transform="translate(-1.5)"/><path class="cls-7" d="M144.2,81c2.29.8-16.35-8.62-31.2-10.3" transform="translate(-1.5)"/><path class="cls-7" d="M76.11,68.49A28,28,0,0,1,88,77.19l1,6.49a6.79,6.79,0,0,1,4.37,0" transform="translate(-1.5)"/><path class="cls-7" d="M105.54,68.71s-6,1.7-11.6,8.48l-1,6.49a6.81,6.81,0,0,0-4.38,0" transform="translate(-1.5)"/><path class="cls-9" d="M48.9,87.47s11.86,11.06,22-3.79" transform="translate(-1.5)"/><path class="cls-9" d="M132.61,87.47s-11.86,11.06-22-3.79" transform="translate(-1.5)"/><path class="cls-10" d="M19.82,134.63c-.6-1.57,4.33-14.71,13.93-14.31a15.82,15.82,0,0,1,15.15,14.5c.48,6,4.8,28,7.25,29.74" transform="translate(-1.5)"/><path class="cls-10" d="M51,136.51s14,.94,21.9,12.24c0,0-.56-25.6,17.13-3.39" transform="translate(-1.5)"/><path class="cls-10" d="M160.62,134.63c.6-1.57-4.33-14.71-13.93-14.31a15.82,15.82,0,0,0-15.15,14.5c-.48,6-4.8,28-7.25,29.74" transform="translate(-1.5)"/><path class="cls-10" d="M129.45,136.51s-14,.94-21.91,12.24c0,0,.56-25.6-17.13-3.39" transform="translate(-1.5)"/><ellipse class="cls-11" cx="26.17" cy="132.81" rx="3.79" ry="4.38"/><ellipse class="cls-11" cx="37.59" cy="132.82" rx="3.79" ry="5.28"/><path class="cls-11" d="M29.82,146.67c2.68,1.24,3.91,3.72,6,6a13.89,13.89,0,0,0,3,1.83,13.47,13.47,0,0,1,3,2.2c1.33-2.16.79-5.46-.85-8.84-2.18-4.49-3.2-8.5-10.33-5a4.45,4.45,0,0,0-2.31,2.49A4.85,4.85,0,0,1,29.82,146.67Z" transform="translate(-1.5)"/><ellipse class="cls-11" cx="151.27" cy="132.81" rx="3.79" ry="4.38"/><ellipse class="cls-11" cx="139.84" cy="132.82" rx="3.79" ry="5.28"/><path class="cls-11" d="M151.93,145a4.5,4.5,0,0,0-2.16-2.17c-7.13-3.47-8.14.54-10.32,5-1.67,3.43-2.21,6.78-.79,8.94,1.36-1.05,2.74-2.08,4.12-3.11.77-.67,1.58-1.32,2.41-2,1.17-.9,2.41-1.79,3.61-2.73A25.46,25.46,0,0,1,151.93,145Z" transform="translate(-1.5)"/><path class="cls-10" d="M116.67,122.77s-15.45,3.67-26.36-4.8H90c-10.91,8.47-26.36,4.8-26.36,4.8" transform="translate(-1.5)"/><polygon class="cls-4" points="76.76 29.31 72.57 36.82 73.09 45.41 65.58 41.21 57 41.73 61.19 34.22 60.67 25.64 68.18 29.83 76.76 29.31"/><path class="cls-4" d="M128.71,36.69l-12.64,3.69a.64.64,0,0,0-.3.19l-8.65,9.93a.64.64,0,0,1-1.09-.24l-3.69-12.64a.6.6,0,0,0-.19-.3l-9.93-8.65a.64.64,0,0,1,.24-1.09l12.64-3.69a.67.67,0,0,0,.3-.19l8.65-9.93a.64.64,0,0,1,1.09.24l3.69,12.64a.73.73,0,0,0,.19.3L129,35.6A.64.64,0,0,1,128.71,36.69Z" transform="translate(-1.5)"/><circle class="cls-4" cx="82.9" cy="16.25" r="4.16"/><path d="M35.3,188.77v18.28c0,2.1,1.46,2.62,1.46,4.08v.09c0,1.59-2.7,2-5.8,2s-5.85-.43-5.85-2v-.09c0-1.46,1.46-2,1.46-4.08V189C24,195.52,20,205.54,19.22,207.3c-.64,1.6-1.38,2-2.58,2-1,0-2.11-.3-3-2.19-.6-1.42-4.73-10.79-6.88-15.65v15.57c0,2.1,1.9,2.62,1.9,4.08v.09c0,1.46-1.68,2-3.62,2s-3.57-.56-3.57-2v-.09c0-1.46,1.9-2,1.9-4.08v-18c0-2.1-1.64-2.62-1.64-4.08v-.09c0-1.59,1.85-2,4.17-2,6,0,6.41,1.38,7.31,3.4.61,1.42,3.74,8.86,5.55,13.2,0,0,5-12.3,5.63-13.76.91-2,2.15-2.84,6.54-2.84,3.1,0,5.8.17,5.8,1.76v.09C36.76,186.19,35.3,186.71,35.3,188.77Z" transform="translate(-1.5)"/><path d="M50.74,211.13v.09c0,1.59-2.67,2-5.8,2s-5.81-.43-5.81-2v-.09c0-1.46,1.42-2,1.42-4.08v-6.24c0-2.06-1.42-2.58-1.42-4v-.09c0-1.59,1.68-2.71,5-4,2.79-1,5.2-1.12,5.2,1.37v13C49.32,209.15,50.74,209.67,50.74,211.13ZM40,185.46c0-2.88,2.28-4.51,5-4.51s5,1.63,5,4.51S47.69,190,45,190,40,188.34,40,185.46Z" transform="translate(-1.5)"/><path d="M77.79,211.13v.09c0,1.59-2.71,2-5.85,2s-5.81-.43-5.81-2v-.09c0-1.46,1.47-2,1.47-4.08v-6.8c0-2.92-.86-4-2.37-4-1.29,0-2.32,1.12-2.36,3.74v7.06c0,2.1,1.46,2.62,1.46,4.08v.09c0,1.59-2.71,2-5.85,2s-5.81-.43-5.81-2v-.09c0-1.46,1.47-2,1.47-4.08v-6.24c0-2.06-1.47-2.58-1.47-4v-.09c0-1.59,1.68-2.71,5-4,2.84-1,4.65-1.08,4.65,1.37v1.29A6.29,6.29,0,0,1,67.68,192c5.85-.26,8.64,3.57,8.64,8.34v6.67C76.32,209.15,77.79,209.67,77.79,211.13Z" transform="translate(-1.5)"/><path d="M105.05,209.5v.08c0,1.59-1.16,3.14-4.26,3.79-2.54.56-4.77-.26-5.29-2.24-.08-.21-.13-.39-.17-.52a7.44,7.44,0,0,1-5.93,2.93c-5.94,0-10.11-4.13-10.11-10.75S83.76,192,89.65,192a7.43,7.43,0,0,1,4.48,1.33v-4c0-2.06-1.42-2.58-1.42-4v-.09c0-1.59,1.67-2.71,5-3.95,2.8-1,5.21-1.12,5.21,1.37v22.79C102.9,207.52,105.05,208,105.05,209.5Zm-10.71-6.71c0-3.83-.9-7-3-7-1.85,0-3.05,2.37-3.05,7s1.2,7,3.05,7C93.44,209.8,94.34,206.66,94.34,202.79Z" transform="translate(-1.5)"/><path d="M129.21,192.13h-.08c-2.93,0-3.31-5.72-7.31-5.72h-2.5c-1.46,0-2.15.68-2.15,2.79v7.87h4c2.11,0,2.07-3.22,3.53-3.22h.09c1.29,0,1.46,1.8,1.46,4.94s-.17,5-1.46,5h-.09c-1.46,0-1.42-3.23-3.53-3.23h-4v6.84c0,1.8,1.77,2.45,1.77,4.08v0c0,1.54-2.33,1.76-6.11,1.76-3.14,0-5.85-.17-5.85-1.76v0c0-1.46,1.46-2,1.46-4.08V189.2c0-2.11-1.46-2.62-1.46-4.08v-.05c0-1.63,1.85-2.06,4.17-2.06h12c2.28,0,2.84-.73,4.3-.73,1.25,0,1.81.6,2.07,2,.3,1.54.77,4.3.94,5.67S130.12,192.13,129.21,192.13Z" transform="translate(-1.5)"/><path d="M155.27,209.5v.08c0,1.59-1.42,3.14-4.51,3.79-2.54.56-4.39-.3-5-2.24a6.87,6.87,0,0,1-.26-1,6.32,6.32,0,0,1-5.94,3.4c-5.84,0-8.6-3.83-8.6-8.6v-4.73c0-2.11-1.46-2.62-1.46-4.09V196c0-1.59,1.21-2.88,4.77-3.66,2.93-.64,5.42-.56,5.42,1.94v11c0,2.92.82,4,2.32,4,1.34,0,2.37-1.07,2.41-3.69v-5.42c0-2.11-1.46-2.62-1.46-4.09V196c0-1.59,1.2-2.88,4.77-3.66,2.93-.64,5.42-.56,5.42,1.94v11.09C153.12,207.52,155.27,208,155.27,209.5Z" transform="translate(-1.5)"/><path d="M168,211.13v.09c0,1.59-2.67,2-5.81,2s-5.8-.43-5.8-2v-.09c0-1.46,1.41-2,1.41-4.08V189.33c0-2.06-1.41-2.58-1.41-4v-.09c0-1.59,1.67-2.71,5-3.95,2.8-1,5.21-1.12,5.21,1.37v24.43C166.54,209.15,168,209.67,168,211.13Z" transform="translate(-1.5)"/><path d="M181.07,211.13v.09c0,1.59-2.67,2-5.8,2s-5.81-.43-5.81-2v-.09c0-1.46,1.42-2,1.42-4.08V189.33c0-2.06-1.42-2.58-1.42-4v-.09c0-1.59,1.68-2.71,5-3.95,2.79-1,5.2-1.12,5.2,1.37v24.43C179.65,209.15,181.07,209.67,181.07,211.13Z" transform="translate(-1.5)"/></g></g></svg>