<svg xmlns="http://www.w3.org/2000/svg" viewBox="0 0 179.57 215.36"><defs><style>.cls-1,.cls-12,.cls-13,.cls-7{fill:#6f5f5e;}.cls-1,.cls-11,.cls-12,.cls-6,.cls-7,.cls-8,.cls-9{stroke:#6f5f5e;}.cls-1,.cls-10,.cls-11,.cls-12,.cls-6{stroke-linecap:round;}.cls-1,.cls-10,.cls-11,.cls-12,.cls-6,.cls-7,.cls-8,.cls-9{stroke-linejoin:round;}.cls-1,.cls-6{stroke-width:3.87px;}.cls-2,.cls-3,.cls-4{fill:#fff;}.cls-2,.cls-3{stroke:#fff;stroke-miterlimit:10;}.cls-2{stroke-width:9px;}.cls-10,.cls-11,.cls-3,.cls-8{stroke-width:3px;}.cls-5{fill:#f6feff;}.cls-10,.cls-11,.cls-6,.cls-8,.cls-9{fill:none;}.cls-12,.cls-7{stroke-width:2px;}.cls-9{stroke-width:2.99px;}.cls-10{stroke:#f6feff;}</style></defs><g id="Layer_2" data-name="Layer 2"><g id="Layer_2-2" data-name="Layer 2"><circle class="cls-1" cx="90.44" cy="86.76" r="84.82"/><path class="cls-2" d="M172.41,80.45c-2.08.46-4.9,2.38-8.41,6.89,2.58-3.11,4.31-36.34-17.52-5.82,3-4.73-11.62-48-31.2-10.3,0,0-17.41-4.38-23.34-4.38S68.6,71.22,68.6,71.22C49,33.52,34.36,76.79,37.4,81.52,15.56,51,17.29,84.23,19.87,87.34c-3.72-4.79-6.7-6.65-8.81-7A5.9,5.9,0,0,1,11,81.54a24.59,24.59,0,0,0-.3,5.82c.49,1.22,1,2.48,1.52,3.77H170.24a24,24,0,0,1,2.28-7.25A20.6,20.6,0,0,1,172.41,80.45Z" transform="translate(-1.5)"/><path class="cls-2" d="M164,87.34s-2.08,16.21-14.95,19.59c-25.82,6.8-38.34-14.68-42.26-11.29-2,1.72.74,10.54-13.62,12.42H91.3c-14.36-1.88-11.63-10.7-13.62-12.42-3.92-3.39-16.44,18.09-42.26,11.29-12.87-3.38-15.55-19.59-15.55-19.59" transform="translate(-1.5)"/><path class="cls-2" d="M37.4,81.52c-2.3.8,16.35-8.62,31.2-10.3" transform="translate(-1.5)"/><path class="cls-2" d="M146.1,81.52c2.3.8-16.35-8.62-31.2-10.3" transform="translate(-1.5)"/><path class="cls-2" d="M78,69a28,28,0,0,1,11.9,8.7l1,6.49a6.81,6.81,0,0,1,4.38,0" transform="translate(-1.5)"/><path class="cls-2" d="M107.44,69.25s-6,1.7-11.6,8.48l-1,6.49a6.81,6.81,0,0,0-4.38,0" transform="translate(-1.5)"/><path class="cls-2" d="M50.81,88s11.86,11.06,22-3.79" transform="translate(-1.5)"/><path class="cls-2" d="M134.51,88s-11.85,11.06-22-3.79" transform="translate(-1.5)"/><path class="cls-3" d="M21.73,135.17c-.6-1.57,4.33-14.71,13.93-14.31a15.82,15.82,0,0,1,15.15,14.5c.48,6,4.8,28,7.25,29.74" transform="translate(-1.5)"/><path class="cls-2" d="M52.9,137.05s14,.94,21.91,12.24c0,0-.57-25.6,17.13-3.39" transform="translate(-1.5)"/><path class="cls-3" d="M162.53,135.17c.59-1.57-4.33-14.71-13.93-14.31a15.83,15.83,0,0,0-15.16,14.5c-.48,6-4.8,28-7.24,29.74" transform="translate(-1.5)"/><path class="cls-2" d="M131.35,137.05s-14,.94-21.91,12.24c0,0,.57-25.6-17.13-3.39" transform="translate(-1.5)"/><ellipse class="cls-4" cx="28.07" cy="133.35" rx="3.79" ry="4.38"/><ellipse class="cls-2" cx="39.49" cy="133.36" rx="3.79" ry="5.28"/><path class="cls-4" d="M42.9,148.44c-2.18-4.49-3.19-8.49-10.32-5A4.51,4.51,0,0,0,30,146.75c.32.17.65.34,1,.52a27.33,27.33,0,0,1,4.55,2.7,95.74,95.74,0,0,1,8.5,6.82C45,154.63,44.42,151.57,42.9,148.44Z" transform="translate(-1.5)"/><ellipse class="cls-2" cx="153.17" cy="133.35" rx="3.79" ry="4.38"/><ellipse class="cls-2" cx="141.75" cy="133.36" rx="3.79" ry="5.28"/><path class="cls-4" d="M146.19,153.6c2.5-2,4.51-5.6,7.54-7.67l.22-.13a4.49,4.49,0,0,0-2.28-2.39c-7.13-3.46-8.14.54-10.32,5-1.81,3.72-2.29,7.35-.41,9.46C142.39,156.25,144.36,155.08,146.19,153.6Z" transform="translate(-1.5)"/><path class="cls-2" d="M118.57,123.31s-15.45,3.67-26.36-4.8h-.36c-10.91,8.47-26.36,4.8-26.36,4.8" transform="translate(-1.5)"/><path class="cls-5" d="M176.46,83.4c-.06-3.26-4.55-6.23-12.46,3.94,2.58-3.11,4.31-36.34-17.52-5.82,3-4.73-11.62-48-31.2-10.3,0,0-17.41-4.38-23.34-4.38S68.6,71.22,68.6,71.22C49,33.52,34.36,76.79,37.4,81.52,15.56,51,17.29,84.23,19.87,87.34,12,77.17,7.37,80.14,7.42,83.4c.41,29.07,10.72,50.81,26.05,65.44a4.88,4.88,0,0,1,.66.62C82.17,194.23,178,170.37,176.46,83.4Z" transform="translate(-1.5)"/><path class="cls-4" d="M164,87.34s-2.08,16.21-14.95,19.59c-25.82,6.8-38.34-14.68-42.26-11.29-2,1.72.74,10.54-13.62,12.42H91.3c-14.36-1.88-11.63-10.7-13.62-12.42-3.92-3.39-16.44,18.09-42.26,11.29-12.87-3.38-15.55-19.59-15.55-19.59" transform="translate(-1.5)"/><path class="cls-4" d="M37.4,81.52c-2.3.8,16.35-8.62,31.2-10.3" transform="translate(-1.5)"/><path class="cls-4" d="M146.1,81.52c2.3.8-16.35-8.62-31.2-10.3" transform="translate(-1.5)"/><path class="cls-4" d="M78,69a28,28,0,0,1,11.9,8.7l1,6.49a6.81,6.81,0,0,1,4.38,0" transform="translate(-1.5)"/><path class="cls-4" d="M107.44,69.25s-6,1.7-11.6,8.48l-1,6.49a6.81,6.81,0,0,0-4.38,0" transform="translate(-1.5)"/><path class="cls-4" d="M50.81,88s11.86,11.06,22-3.79" transform="translate(-1.5)"/><path class="cls-4" d="M134.51,88s-11.85,11.06-22-3.79" transform="translate(-1.5)"/><path class="cls-5" d="M21.73,135.17c-.6-1.57,4.33-14.71,13.93-14.31a15.82,15.82,0,0,1,15.15,14.5c.48,6,4.8,28,7.25,29.74" transform="translate(-1.5)"/><path class="cls-4" d="M52.9,137.05s14,.94,21.91,12.24c0,0-.57-25.6,17.13-3.39" transform="translate(-1.5)"/><path class="cls-5" d="M162.53,135.17c.59-1.57-4.33-14.71-13.93-14.31a15.83,15.83,0,0,0-15.16,14.5c-.48,6-4.8,28-7.24,29.74" transform="translate(-1.5)"/><path class="cls-4" d="M131.35,137.05s-14,.94-21.91,12.24c0,0,.57-25.6-17.13-3.39" transform="translate(-1.5)"/><ellipse class="cls-4" cx="28.07" cy="133.35" rx="3.79" ry="4.38"/><ellipse class="cls-4" cx="39.49" cy="133.36" rx="3.79" ry="5.28"/><path class="cls-4" d="M42.9,148.44c-2.18-4.49-3.19-8.49-10.32-5a4.52,4.52,0,0,0-2.44,2.84,15.73,15.73,0,0,1,2.45,2c.16.11.33.2.49.3a5,5,0,0,1,2,2.33c.33.37.65.73,1,1.09,2.18,2.31,5.14,3.57,7.5,5.68C45.15,155.51,44.64,152,42.9,148.44Z" transform="translate(-1.5)"/><ellipse class="cls-4" cx="153.17" cy="133.35" rx="3.79" ry="4.38"/><ellipse class="cls-4" cx="141.75" cy="133.36" rx="3.79" ry="5.28"/><path class="cls-4" d="M147,151.17c2.4-1.75,4.29-4,6.85-5.59a4.5,4.5,0,0,0-2.18-2.17c-7.13-3.46-8.14.54-10.32,5-1.4,2.87-2,5.69-1.34,7.8C142.21,154.38,144.64,152.89,147,151.17Z" transform="translate(-1.5)"/><path class="cls-4" d="M118.57,123.31s-15.45,3.67-26.36-4.8h-.36c-10.91,8.47-26.36,4.8-26.36,4.8" transform="translate(-1.5)"/><circle class="cls-6" cx="90.44" cy="86.76" r="84.82"/><path class="cls-7" d="M20.19,86.8S13.29,51.05,37.71,81c0,0,26.6-12,40.62-12.49l11,7.71,1.44,7.48h4.37l1-6.49,10-8.7L146.42,81s23-30.44,17.9,5.82c0,0-9.29,39.92-56.56,5.19,1.31.91-15.77,31.32-31.22.57C76.48,94,31.53,126.51,20.19,86.8Z" transform="translate(-1.5)"/><path class="cls-8" d="M92.26,66.3c-5.94,0-23.35,4.38-23.35,4.38C49.34,33,34.68,76.25,37.71,81c-21.83-30.52-20.1,2.71-17.52,5.82-7.9-10.17-12.45-3.94-12.45-3.94" transform="translate(-1.5)"/><path class="cls-8" d="M176.77,82.86s-4.55-6.23-12.45,3.94c2.58-3.11,4.31-36.34-17.52-5.82,3-4.73-11.63-48-31.2-10.3,0,0-17.41-4.38-23.34-4.38" transform="translate(-1.5)"/><path class="cls-9" d="M164.32,86.8s-2.08,16.2-14.95,19.59c-25.82,6.8-38.35-14.68-42.26-11.29-2,1.72.74,10.54-13.62,12.42H91.62C77.25,105.64,80,96.82,78,95.1c-3.92-3.39-16.44,18.09-42.26,11.29C22.87,103,20.19,86.8,20.19,86.8" transform="translate(-1.5)"/><path class="cls-8" d="M37.71,81c-2.29.8,16.36-8.62,31.2-10.3" transform="translate(-1.5)"/><path class="cls-8" d="M146.42,81c2.29.8-16.35-8.62-31.2-10.3" transform="translate(-1.5)"/><path class="cls-8" d="M78.33,68.49a28,28,0,0,1,11.9,8.7l1,6.49a6.81,6.81,0,0,1,4.38,0" transform="translate(-1.5)"/><path class="cls-8" d="M107.76,68.71s-6,1.7-11.6,8.48l-1,6.49a6.79,6.79,0,0,0-4.37,0" transform="translate(-1.5)"/><path class="cls-10" d="M51.13,87.47s11.85,11.06,22-3.79" transform="translate(-1.5)"/><path class="cls-10" d="M134.83,87.47s-11.86,11.06-22-3.79" transform="translate(-1.5)"/><path class="cls-11" d="M22,134.63c-.59-1.57,4.33-14.71,13.93-14.31a15.83,15.83,0,0,1,15.16,14.5c.48,6,4.8,28,7.24,29.74" transform="translate(-1.5)"/><path class="cls-11" d="M53.22,136.51s14,.94,21.91,12.24c0,0-.57-25.6,17.13-3.39" transform="translate(-1.5)"/><path class="cls-11" d="M162.84,134.63c.6-1.57-4.33-14.71-13.93-14.31a15.82,15.82,0,0,0-15.15,14.5c-.48,6-4.8,28-7.25,29.74" transform="translate(-1.5)"/><path class="cls-11" d="M131.67,136.51s-14,.94-21.91,12.24c0,0,.57-25.6-17.13-3.39" transform="translate(-1.5)"/><ellipse class="cls-12" cx="28.39" cy="132.81" rx="3.79" ry="4.38"/><ellipse class="cls-12" cx="39.81" cy="132.82" rx="3.79" ry="5.28"/><path class="cls-12" d="M32,146.67c2.68,1.24,3.91,3.72,6,6a13.89,13.89,0,0,0,3,1.83,13.47,13.47,0,0,1,3,2.2c1.33-2.16.79-5.46-.85-8.84-2.18-4.49-3.19-8.5-10.32-5a4.47,4.47,0,0,0-2.32,2.49A4.85,4.85,0,0,1,32,146.67Z" transform="translate(-1.5)"/><ellipse class="cls-12" cx="153.49" cy="132.81" rx="3.79" ry="4.38"/><ellipse class="cls-12" cx="142.07" cy="132.82" rx="3.79" ry="5.28"/><path class="cls-12" d="M154.15,145a4.46,4.46,0,0,0-2.16-2.17c-7.13-3.47-8.14.54-10.32,5-1.67,3.43-2.2,6.78-.79,8.94,1.36-1.05,2.74-2.08,4.12-3.11.77-.67,1.58-1.32,2.41-2,1.17-.9,2.41-1.79,3.61-2.73A25.46,25.46,0,0,1,154.15,145Z" transform="translate(-1.5)"/><path class="cls-11" d="M118.89,122.77s-15.45,3.67-26.36-4.8h-.36c-10.91,8.47-26.36,4.8-26.36,4.8" transform="translate(-1.5)"/><polygon class="cls-5" points="78.99 29.31 74.79 36.82 75.31 45.41 67.81 41.21 59.22 41.73 63.41 34.22 62.89 25.64 70.4 29.83 78.99 29.31"/><path class="cls-5" d="M130.93,36.69l-12.64,3.69a.64.64,0,0,0-.3.19l-8.65,9.93a.64.64,0,0,1-1.09-.24l-3.69-12.64a.6.6,0,0,0-.19-.3l-9.92-8.65a.63.63,0,0,1,.24-1.09l12.63-3.69a.67.67,0,0,0,.3-.19l8.65-9.93a.64.64,0,0,1,1.09.24l3.69,12.64a.75.75,0,0,0,.2.3l9.92,8.65A.64.64,0,0,1,130.93,36.69Z" transform="translate(-1.5)"/><circle class="cls-5" cx="85.13" cy="16.25" r="4.16"/><path class="cls-13" d="M35.3,190.6v18.27c0,2.11,1.46,2.62,1.46,4.08V213c0,1.59-2.7,2-5.8,2s-5.85-.43-5.85-2V213c0-1.46,1.46-2,1.46-4.08V190.81C24,197.35,20,207.36,19.22,209.13c-.64,1.59-1.38,2-2.58,2-1,0-2.11-.3-3-2.19-.6-1.42-4.73-10.8-6.88-15.66v15.57c0,2.11,1.9,2.62,1.9,4.08V213c0,1.46-1.68,2-3.62,2s-3.57-.56-3.57-2V213c0-1.46,1.9-2,1.9-4.08v-18c0-2.11-1.64-2.63-1.64-4.09v-.08c0-1.6,1.85-2,4.17-2,6,0,6.41,1.38,7.31,3.4.61,1.42,3.74,8.86,5.55,13.2,0,0,5-12.3,5.63-13.76.91-2,2.15-2.84,6.54-2.84,3.1,0,5.8.18,5.8,1.77v.08C36.76,188,35.3,188.53,35.3,190.6Z" transform="translate(-1.5)"/><path class="cls-13" d="M50.74,213V213c0,1.59-2.67,2-5.8,2s-5.81-.43-5.81-2V213c0-1.46,1.42-2,1.42-4.08v-6.23c0-2.07-1.42-2.58-1.42-4v-.08c0-1.59,1.68-2.71,5-4,2.79-1,5.2-1.12,5.2,1.38v12.94C49.32,211,50.74,211.49,50.74,213ZM40,187.28c0-2.88,2.28-4.51,5-4.51s5,1.63,5,4.51-2.32,4.52-5,4.52S40,190.17,40,187.28Z" transform="translate(-1.5)"/><path class="cls-13" d="M77.79,213V213c0,1.59-2.71,2-5.85,2s-5.81-.43-5.81-2V213c0-1.46,1.47-2,1.47-4.08v-6.79c0-2.93-.86-4-2.37-4-1.29,0-2.32,1.11-2.36,3.74v7.05c0,2.11,1.46,2.62,1.46,4.08V213c0,1.59-2.71,2-5.85,2s-5.81-.43-5.81-2V213c0-1.46,1.47-2,1.47-4.08v-6.23c0-2.07-1.47-2.58-1.47-4v-.08c0-1.59,1.68-2.71,5-4,2.84-1,4.65-1.07,4.65,1.38v1.29a6.28,6.28,0,0,1,5.37-3.36c5.85-.26,8.64,3.57,8.64,8.35v6.66C76.32,211,77.79,211.49,77.79,213Z" transform="translate(-1.5)"/><path class="cls-13" d="M105.05,211.32v.09c0,1.59-1.16,3.14-4.26,3.78-2.54.56-4.77-.26-5.29-2.24-.08-.21-.13-.38-.17-.51a7.46,7.46,0,0,1-5.93,2.92c-5.94,0-10.11-4.13-10.11-10.75s4.47-10.75,10.36-10.75a7.37,7.37,0,0,1,4.48,1.34v-4c0-2.06-1.42-2.58-1.42-4V187c0-1.6,1.67-2.71,5-4,2.8-1,5.21-1.12,5.21,1.38v22.79C102.9,209.34,105.05,209.86,105.05,211.32Zm-10.71-6.71c0-3.82-.9-7-3-7-1.85,0-3.05,2.36-3.05,7s1.2,7,3.05,7C93.44,211.62,94.34,208.48,94.34,204.61Z" transform="translate(-1.5)"/><path class="cls-13" d="M129.21,194h-.08c-2.93,0-3.31-5.72-7.31-5.72h-2.5c-1.46,0-2.15.69-2.15,2.79v7.87h4c2.11,0,2.07-3.22,3.53-3.22h.09c1.29,0,1.46,1.81,1.46,4.94s-.17,4.95-1.46,4.95h-.09c-1.46,0-1.42-3.23-3.53-3.23h-4v6.84c0,1.81,1.77,2.45,1.77,4.09v0c0,1.55-2.33,1.76-6.11,1.76-3.14,0-5.85-.17-5.85-1.76v0c0-1.47,1.46-2,1.46-4.09V191c0-2.1-1.46-2.62-1.46-4.08v0c0-1.64,1.85-2.07,4.17-2.07h12c2.28,0,2.84-.73,4.3-.73,1.25,0,1.81.6,2.07,2,.3,1.55.77,4.3.94,5.68S130.12,194,129.21,194Z" transform="translate(-1.5)"/><path class="cls-13" d="M155.27,211.32v.09c0,1.59-1.42,3.14-4.51,3.78-2.54.56-4.39-.3-5-2.24a7.1,7.1,0,0,1-.26-1,6.33,6.33,0,0,1-5.94,3.39c-5.84,0-8.6-3.82-8.6-8.6V202c0-2.1-1.46-2.62-1.46-4.08v-.09c0-1.59,1.21-2.88,4.77-3.65,2.93-.65,5.42-.56,5.42,1.93v11c0,2.92.82,4,2.32,4,1.34,0,2.37-1.08,2.41-3.7V202c0-2.1-1.46-2.62-1.46-4.08v-.09c0-1.59,1.2-2.88,4.77-3.65,2.93-.65,5.42-.56,5.42,1.93v11.1C153.12,209.34,155.27,209.86,155.27,211.32Z" transform="translate(-1.5)"/><path class="cls-13" d="M168,213V213c0,1.59-2.67,2-5.81,2s-5.8-.43-5.8-2V213c0-1.46,1.41-2,1.41-4.08V191.15c0-2.06-1.41-2.58-1.41-4V187c0-1.6,1.67-2.71,5-4,2.8-1,5.21-1.12,5.21,1.38v24.42C166.54,211,168,211.49,168,213Z" transform="translate(-1.5)"/><path class="cls-13" d="M181.07,213V213c0,1.59-2.67,2-5.8,2s-5.81-.43-5.81-2V213c0-1.46,1.42-2,1.42-4.08V191.15c0-2.06-1.42-2.58-1.42-4V187c0-1.6,1.68-2.71,5-4,2.79-1,5.2-1.12,5.2,1.38v24.42C179.65,211,181.07,211.49,181.07,213Z" transform="translate(-1.5)"/></g></g></svg>