<svg xmlns="http://www.w3.org/2000/svg" viewBox="0 0 229.67 219.23"><defs><style>.cls-1,.cls-10,.cls-11,.cls-5,.cls-6,.cls-7,.cls-8{stroke:#000;}.cls-1,.cls-10,.cls-11,.cls-5,.cls-9{stroke-linecap:round;}.cls-1,.cls-10,.cls-11,.cls-5,.cls-6,.cls-7,.cls-8,.cls-9{stroke-linejoin:round;}.cls-1,.cls-5{stroke-width:3.87px;}.cls-2,.cls-3,.cls-4{fill:#fff;}.cls-2,.cls-3,.cls-9{stroke:#fff;}.cls-2,.cls-3{stroke-miterlimit:10;}.cls-2{stroke-width:9px;}.cls-10,.cls-3,.cls-7,.cls-9{stroke-width:3px;}.cls-10,.cls-5,.cls-7,.cls-8,.cls-9{fill:none;}.cls-11,.cls-6{stroke-width:2px;}.cls-8{stroke-width:2.99px;}</style></defs><g id="Layer_2" data-name="Layer 2"><g id="Layer_2-2" data-name="Layer 2"><circle class="cls-1" cx="113.23" cy="132.47" r="84.82"/><path class="cls-2" d="M193.69,126.17c-2.08.46-4.9,2.37-8.41,6.88,2.58-3.11,4.32-36.34-17.52-5.82,3-4.72-11.62-48-31.2-10.3,0,0-17.4-4.38-23.34-4.38s-23.34,4.38-23.34,4.38c-19.58-37.7-34.24,5.58-31.2,10.3-21.84-30.52-20.11,2.71-17.52,5.82-3.72-4.78-6.71-6.65-8.82-7a5.81,5.81,0,0,1-.11,1.15,24.59,24.59,0,0,0-.3,5.82c.49,1.23,1,2.49,1.52,3.77H191.52a23.83,23.83,0,0,1,2.28-7.24A20.67,20.67,0,0,1,193.69,126.17Z"/><path class="cls-2" d="M185.28,133.05s-2.08,16.21-14.95,19.6c-25.82,6.79-38.34-14.69-42.26-11.3-2,1.72.75,10.54-13.62,12.43h-1.87C98.22,151.89,101,143.07,99,141.35c-3.91-3.39-16.44,18.09-42.26,11.3-12.87-3.39-15.54-19.6-15.54-19.6"/><path class="cls-2" d="M58.68,127.23c-2.3.81,16.35-8.62,31.2-10.3"/><path class="cls-2" d="M167.38,127.23c2.3.81-16.35-8.62-31.2-10.3"/><path class="cls-2" d="M99.29,114.75a28,28,0,0,1,11.9,8.69l1,6.5a6.74,6.74,0,0,1,4.38,0"/><path class="cls-2" d="M128.72,115s-6,1.7-11.6,8.47l-1,6.5a6.74,6.74,0,0,0-4.38,0"/><path class="cls-2" d="M72.09,133.73s11.86,11.05,22-3.79"/><path class="cls-2" d="M155.79,133.73s-11.85,11.05-22-3.79"/><path class="cls-3" d="M43,180.88c-.6-1.57,4.33-14.7,13.93-14.3a15.81,15.81,0,0,1,15.15,14.49c.48,6,4.8,28.05,7.25,29.74"/><path class="cls-2" d="M74.18,182.76s14,.94,21.91,12.24c0,0-.57-25.6,17.13-3.39"/><path class="cls-3" d="M183.81,180.88c.59-1.57-4.33-14.7-13.93-14.3a15.82,15.82,0,0,0-15.16,14.49c-.48,6-4.8,28.05-7.24,29.74"/><path class="cls-2" d="M152.63,182.76s-14,.94-21.91,12.24c0,0,.57-25.6-17.13-3.39"/><ellipse class="cls-4" cx="50.86" cy="179.06" rx="3.79" ry="4.38"/><ellipse class="cls-2" cx="62.28" cy="179.07" rx="3.79" ry="5.28"/><path class="cls-4" d="M64.18,194.15c-2.18-4.49-3.19-8.49-10.32-5a4.48,4.48,0,0,0-2.55,3.34c.31.18.64.34.95.52a27.33,27.33,0,0,1,4.55,2.7,99.48,99.48,0,0,1,8.5,6.82C66.29,200.35,65.7,197.28,64.18,194.15Z"/><ellipse class="cls-2" cx="175.96" cy="179.06" rx="3.79" ry="4.38"/><ellipse class="cls-2" cx="164.53" cy="179.07" rx="3.79" ry="5.28"/><path class="cls-4" d="M167.47,199.31c2.5-2,4.51-5.6,7.54-7.66l.22-.14a4.45,4.45,0,0,0-2.28-2.39c-7.13-3.46-8.14.54-10.32,5-1.81,3.72-2.29,7.35-.41,9.46C163.67,202,165.64,200.79,167.47,199.31Z"/><path class="cls-2" d="M139.85,169s-15.45,3.67-26.36-4.8h-.36c-10.91,8.47-26.36,4.8-26.36,4.8"/><path class="cls-4" d="M197.74,129.12c-.06-3.27-4.55-6.23-12.46,3.93,2.58-3.11,4.32-36.34-17.52-5.82,3-4.72-11.62-48-31.2-10.3,0,0-17.4-4.38-23.34-4.38s-23.34,4.38-23.34,4.38c-19.58-37.7-34.24,5.58-31.2,10.3-21.84-30.52-20.11,2.71-17.52,5.82-7.91-10.16-12.51-7.2-12.46-3.93.41,29.06,10.72,50.81,26.05,65.43a4.92,4.92,0,0,1,.66.62C103.45,239.94,199.32,216.08,197.74,129.12Z"/><path class="cls-4" d="M185.28,133.05s-2.08,16.21-14.95,19.6c-25.82,6.79-38.34-14.69-42.26-11.3-2,1.72.75,10.54-13.62,12.43h-1.87C98.22,151.89,101,143.07,99,141.35c-3.91-3.39-16.44,18.09-42.26,11.3-12.87-3.39-15.54-19.6-15.54-19.6"/><path class="cls-4" d="M58.68,127.23c-2.3.81,16.35-8.62,31.2-10.3"/><path class="cls-4" d="M167.38,127.23c2.3.81-16.35-8.62-31.2-10.3"/><path class="cls-4" d="M99.29,114.75a28,28,0,0,1,11.9,8.69l1,6.5a6.74,6.74,0,0,1,4.38,0"/><path class="cls-4" d="M128.72,115s-6,1.7-11.6,8.47l-1,6.5a6.74,6.74,0,0,0-4.38,0"/><path class="cls-4" d="M72.09,133.73s11.86,11.05,22-3.79"/><path class="cls-4" d="M155.79,133.73s-11.85,11.05-22-3.79"/><path class="cls-4" d="M43,180.88c-.6-1.57,4.33-14.7,13.93-14.3a15.81,15.81,0,0,1,15.15,14.49c.48,6,4.8,28.05,7.25,29.74"/><path class="cls-4" d="M74.18,182.76s14,.94,21.91,12.24c0,0-.57-25.6,17.13-3.39"/><path class="cls-4" d="M183.81,180.88c.59-1.57-4.33-14.7-13.93-14.3a15.82,15.82,0,0,0-15.16,14.49c-.48,6-4.8,28.05-7.24,29.74"/><path class="cls-4" d="M152.63,182.76s-14,.94-21.91,12.24c0,0,.57-25.6-17.13-3.39"/><ellipse class="cls-4" cx="50.86" cy="179.06" rx="3.79" ry="4.38"/><ellipse class="cls-4" cx="62.28" cy="179.07" rx="3.79" ry="5.28"/><path class="cls-4" d="M64.18,194.15c-2.18-4.49-3.19-8.49-10.32-5A4.52,4.52,0,0,0,51.42,192a15.84,15.84,0,0,1,2.45,2l.49.31a5,5,0,0,1,2,2.32c.33.37.65.73,1,1.09,2.19,2.31,5.14,3.57,7.5,5.68C66.44,201.22,65.92,197.73,64.18,194.15Z"/><ellipse class="cls-4" cx="175.96" cy="179.06" rx="3.79" ry="4.38"/><ellipse class="cls-4" cx="164.53" cy="179.07" rx="3.79" ry="5.28"/><path class="cls-4" d="M168.28,196.89c2.4-1.76,4.29-4,6.85-5.6a4.46,4.46,0,0,0-2.18-2.17c-7.13-3.46-8.14.54-10.32,5-1.4,2.87-2,5.69-1.34,7.8C163.49,200.09,165.92,198.61,168.28,196.89Z"/><path class="cls-4" d="M139.85,169s-15.45,3.67-26.36-4.8h-.36c-10.91,8.47-26.36,4.8-26.36,4.8"/><circle class="cls-5" cx="113.23" cy="132.47" r="84.82"/><path class="cls-6" d="M41.47,132.51S34.57,96.76,59,126.69c0,0,26.6-12,40.62-12.49l11,7.71,1.44,7.49h4.37l1-6.5,10-8.7,40.24,12.49s23-30.44,17.9,5.82c0,0-9.29,39.92-56.56,5.2,1.31.9-15.77,31.31-31.22.56C97.76,139.71,52.81,172.23,41.47,132.51Z"/><path class="cls-7" d="M113.54,112c-5.94,0-23.35,4.38-23.35,4.38C70.62,78.69,56,122,59,126.69c-21.83-30.52-20.1,2.71-17.52,5.82C33.57,122.34,29,128.58,29,128.58"/><path class="cls-7" d="M198.05,128.58s-4.55-6.24-12.45,3.93c2.58-3.11,4.31-36.34-17.52-5.82,3-4.73-11.63-48-31.2-10.3,0,0-17.41-4.38-23.34-4.38"/><path class="cls-8" d="M185.6,132.51s-2.08,16.21-14.95,19.59c-25.82,6.8-38.35-14.68-42.26-11.29-2,1.72.74,10.54-13.62,12.42H112.9c-14.37-1.88-11.63-10.7-13.62-12.42C95.36,137.42,82.84,158.9,57,152.1c-12.87-3.38-15.55-19.59-15.55-19.59"/><path class="cls-7" d="M59,126.69c-2.29.81,16.36-8.62,31.2-10.3"/><path class="cls-7" d="M167.7,126.69c2.29.81-16.35-8.62-31.2-10.3"/><path class="cls-7" d="M99.61,114.2a28,28,0,0,1,11.9,8.7l1,6.5a6.74,6.74,0,0,1,4.38,0"/><path class="cls-7" d="M129,114.42s-5.95,1.7-11.6,8.48l-1,6.5a6.71,6.71,0,0,0-4.37,0"/><path class="cls-9" d="M72.41,133.18s11.86,11.06,22-3.78"/><path class="cls-9" d="M156.11,133.18s-11.86,11.06-22-3.78"/><path class="cls-10" d="M43.32,180.34c-.59-1.57,4.33-14.7,13.93-14.31a15.83,15.83,0,0,1,15.16,14.5c.48,6,4.8,28.05,7.24,29.74"/><path class="cls-10" d="M74.5,182.22s14,.94,21.91,12.24c0,0-.57-25.6,17.13-3.39"/><path class="cls-10" d="M184.12,180.34c.6-1.57-4.33-14.7-13.93-14.31A15.82,15.82,0,0,0,155,180.53c-.48,6-4.8,28.05-7.25,29.74"/><path class="cls-10" d="M153,182.22s-14,.94-21.91,12.24c0,0,.57-25.6-17.13-3.39"/><ellipse class="cls-11" cx="51.17" cy="178.52" rx="3.79" ry="4.38"/><ellipse class="cls-11" cx="62.6" cy="178.53" rx="3.79" ry="5.28"/><path class="cls-11" d="M53.33,192.38c2.68,1.24,3.9,3.72,6,6.05a14.28,14.28,0,0,0,3,1.82,14.13,14.13,0,0,1,3,2.2c1.33-2.16.79-5.46-.85-8.84-2.18-4.49-3.19-8.49-10.32-5a4.45,4.45,0,0,0-2.32,2.5A4.82,4.82,0,0,1,53.33,192.38Z"/><ellipse class="cls-11" cx="176.28" cy="178.52" rx="3.79" ry="4.38"/><ellipse class="cls-11" cx="164.85" cy="178.53" rx="3.79" ry="5.28"/><path class="cls-11" d="M175.43,190.75a4.46,4.46,0,0,0-2.16-2.17c-7.13-3.46-8.14.54-10.32,5-1.67,3.43-2.2,6.79-.79,8.94q2.06-1.56,4.12-3.11c.77-.67,1.58-1.32,2.41-2,1.17-.9,2.41-1.79,3.61-2.73A25.93,25.93,0,0,1,175.43,190.75Z"/><path class="cls-10" d="M140.17,168.48s-15.45,3.67-26.36-4.8h-.36c-10.91,8.47-26.36,4.8-26.36,4.8"/><polygon class="cls-4" points="101.77 75.02 97.58 82.53 98.1 91.12 90.59 86.92 82.01 87.45 86.2 79.94 85.68 71.35 93.19 75.54 101.77 75.02"/><path class="cls-4" d="M152.21,82.4l-12.63,3.69a.64.64,0,0,0-.31.2l-8.64,9.92a.64.64,0,0,1-1.1-.24l-3.69-12.64a.64.64,0,0,0-.19-.3l-9.92-8.65a.63.63,0,0,1,.24-1.09L128.6,69.6a.6.6,0,0,0,.3-.19l8.65-9.93a.64.64,0,0,1,1.1.25l3.68,12.63a.69.69,0,0,0,.2.3l9.92,8.65A.64.64,0,0,1,152.21,82.4Z"/><circle class="cls-4" cx="107.91" cy="61.96" r="4.16"/><path d="M38.88,31.2l10.51,15c1.22,1.72,3,1.11,3.81,2.33l0,.07c.89,1.33-1.55,3.48-4.48,5.77s-5.71,4.22-6.78,3l-.06-.06c-1-1.09.07-2.7-1.3-4.3L28.84,39.32a167.34,167.34,0,0,0,5.05,20.42,3.33,3.33,0,0,1-.84,3.82A4.14,4.14,0,0,1,28.85,65,122.5,122.5,0,0,0,10.5,63L23.08,72.2c1.7,1.22,3.6-.48,4.77.42l.07,0c1.15.9.3,2.93-1.12,5s-3,3.55-4.26,2.77l-.08,0c-1.24-.78-.29-3.2-2-4.37L5.48,66c-1.75-1.18-3.63.76-4.86,0L.55,66c-1.35-.85-.06-3.71,2.17-6.84,5.8-7.95,7.48-7.38,9.89-7.22a129.41,129.41,0,0,1,15.27,2.78c-.18.1-3.59-13.81-3.64-15.66-.31-2.4.55-4.44,5.88-8.66,3.77-3,7.32-5.12,8.21-3.8l0,.07C39.19,27.84,37.68,29.51,38.88,31.2Z"/><path d="M67.83,40.19a.45.45,0,0,0,0,.08c.67,1.45-2,3.14-5.22,4.93s-6.12,3.14-7,1.81l0-.08c-.8-1.23.41-2.6-.7-4.39S52.72,39,51.62,37.23s-3-1.18-3.77-2.41l-.05-.07c-.85-1.33.47-3.58,3.91-7,2.92-2.84,6-4.4,7.07-2.15l5.71,11.63C65.43,39.14,67.2,38.86,67.83,40.19Zm-25-15.56c-1.55-2.43.56-5.72,4.28-7.76s7.6-2.06,8.82.55-1.06,5.49-4.45,7.36S44.34,27.06,42.78,24.63Z"/><path d="M98.43,31l0,.08c.22,1.58-2.82,2.43-6.37,3.18s-6.64,1.18-7.08-.36l0-.08c-.4-1.41,1.16-2.36.64-4.4q-.87-3.29-1.73-6.57c-.74-2.83-2.13-3.59-4.09-3-1.67.48-2.66,2-1.91,4.49.71,2.24,1.43,4.48,2.14,6.72.65,2,2.48,2,2.9,3.39l0,.08c.45,1.53-2.44,2.82-5.87,4.08s-6.45,2.15-7.11.7a.44.44,0,0,0,0-.08c-.61-1.33.81-2.51,0-4.45S68.29,31,67.47,29s-2.8-1.61-3.4-2.93A.44.44,0,0,1,64,26c-.65-1.44.95-3.45,4.81-6.26,3.33-2.36,5.77-3.15,6.51-.82.12.37.25.78.4,1.23.66-2.29,3.09-4.4,6.15-5.27C89.81,12.66,94.3,16,95,20.69l1.08,6.58C96.42,29.34,98.23,29.59,98.43,31Z"/><path d="M130.67,29.47v.08c-.24,1.59-1.83,2.87-5.44,3.14-3,.25-5.45-.68-6-2.68a4.76,4.76,0,0,1-.18-.53,10.13,10.13,0,0,1-7,2.85c-6.73.13-12-3.23-13-9.8S103.75,11,112,10.83a11.8,11.8,0,0,1,6.15,1.37l.12-4c.07-2.07-2-2.63-1.94-4.09V4c0-1.57,2.49-2.72,7.54-3.64,4.26-.75,7.93-.36,7.6,2.11,0,.22-2.86,22.62-2.86,22.62C128.38,27.15,130.9,28,130.67,29.47Zm-12.52-7.85c.14-3.82-1-7-3.76-7-2.5,0-4,2.43-3.87,7s1.68,6.94,3.86,7C116.82,28.57,118,25.49,118.15,21.62Z"/><path d="M165.5,21.47l-.11,0c-3.75-1.57-2.13-7.14-7.67-9.09-1.15-.39-2.3-.77-3.45-1.13-2-.62-3.19-.22-3.77,1.8l-2.18,7.57q2.6.74,5.16,1.59c2.67.9,3.71-2.14,5.61-1.44l.11.05c1.67.63,1.21,2.41,0,5.32s-2,4.51-3.57,3.92l-.1,0c-1.73-.64-.57-3.67-3.18-4.56-1.67-.55-3.34-1.07-5-1.55l-1.89,6.58c-.49,1.73,1.36,2.95.86,4.51v0c-.47,1.49-3.1.85-7.36-.16-3.54-.83-6.6-1.5-6.34-3.07v0c.24-1.45,2.05-1.65,2.45-3.72q1.68-8.91,3.35-17.84c.4-2.07-1.59-2.95-1.35-4.39v0c.27-1.61,3-1.59,6.43-.86A135.9,135.9,0,0,1,160.77,9.8c3.2,1.16,4.24.8,6.29,1.63,1.74.72,2.27,1.62,2.06,3-.21,1.6-.71,4.39-1.06,5.75S166.66,22,165.5,21.47Z"/><path d="M185.63,54.28l0,.07c-1,1.22-3.35,1.22-6.68-.53-2.75-1.39-4.06-3.31-3.63-5.37a7.58,7.58,0,0,1,.29-1c-2.1.93-4.84.85-7.85-.9-5.91-3.38-7.32-8.05-5.37-12.45l2-4.3c.89-1.92-.69-3.19-.1-4.53l0-.08c.63-1.44,2.69-2,7.53-.5,4,1.26,7,3.16,5.74,5.3-.23.41-5.54,9.53-5.54,9.53-1.47,2.53-1.14,4,.43,4.92,1.39.86,3,.66,4.53-1.5l3-4.54c1.17-1.77-.23-3.28.55-4.51l0-.08c.84-1.32,3-1.61,7.6.7,3.8,1.89,6.57,4.28,5,6.21l-7,8.65C184.82,51,186.59,53.16,185.63,54.28Z"/><path d="M195.89,66.7l-.06.06c-1.21,1-3.7-1.2-6.44-3.92s-4.9-5.16-3.86-6.37l.06-.07c.95-1.11,2.63-.31,4-1.88l11.83-13.2c1.39-1.54.12-3.36,1.07-4.46l.06-.07c1-1.19,3.75-.4,8.41,2.39,3.92,2.38,6.63,5.3,4.77,7L197.71,62.6C196.16,64,197,65.74,195.89,66.7Z"/><path d="M206.1,80.37l-.08,0c-1.35.84-3.56-1.88-5.93-5.11s-4.22-6-3-7.09l.06-.06c1.12-1,2.69.14,4.32-1.19l13.69-11.25c1.61-1.31.58-3.36,1.69-4.3l.06-.06c1.2-1,3.82.23,8.12,3.86,3.62,3.09,5.95,6.53,3.85,7.88L208.48,76.54C206.73,77.71,207.34,79.59,206.1,80.37Z"/></g></g></svg>