<svg xmlns="http://www.w3.org/2000/svg" viewBox="0 0 365.61 173.51"><defs><style>.cls-1,.cls-10,.cls-11,.cls-5,.cls-6,.cls-7,.cls-8{stroke:#000;}.cls-1,.cls-10,.cls-11,.cls-5,.cls-9{stroke-linecap:round;}.cls-1,.cls-10,.cls-11,.cls-5,.cls-6,.cls-7,.cls-8,.cls-9{stroke-linejoin:round;}.cls-1,.cls-5{stroke-width:3.87px;}.cls-2,.cls-3,.cls-4{fill:#fff;}.cls-2,.cls-3,.cls-9{stroke:#fff;}.cls-2,.cls-3{stroke-miterlimit:10;}.cls-2{stroke-width:9px;}.cls-10,.cls-3,.cls-7,.cls-9{stroke-width:3px;}.cls-10,.cls-5,.cls-7,.cls-8,.cls-9{fill:none;}.cls-11,.cls-6{stroke-width:2px;}.cls-8{stroke-width:2.99px;}</style></defs><g id="Layer_2" data-name="Layer 2"><g id="Layer_2-2" data-name="Layer 2"><circle class="cls-1" cx="86.76" cy="86.76" r="84.82"/><path class="cls-2" d="M167.21,80.45c-2.07.46-4.9,2.38-8.4,6.89,2.58-3.11,4.31-36.34-17.52-5.82,3-4.73-11.63-48-31.2-10.3,0,0-17.41-4.38-23.34-4.38S63.4,71.22,63.4,71.22c-19.57-37.7-34.23,5.57-31.2,10.3C10.37,51,12.1,84.23,14.68,87.34c-3.72-4.79-6.7-6.65-8.81-7a5.9,5.9,0,0,1-.11,1.16,23.58,23.58,0,0,0-.3,5.82c.49,1.22,1,2.48,1.52,3.77H165.05a23.7,23.7,0,0,1,2.28-7.25A21.73,21.73,0,0,1,167.21,80.45Z"/><path class="cls-2" d="M158.81,87.34s-2.08,16.21-14.95,19.59c-25.82,6.8-38.35-14.68-42.26-11.29-2,1.72.74,10.54-13.62,12.42H86.11c-14.37-1.88-11.63-10.7-13.62-12.42-3.92-3.39-16.44,18.09-42.26,11.29-12.87-3.38-15.55-19.59-15.55-19.59"/><path class="cls-2" d="M32.2,81.52c-2.29.8,16.36-8.62,31.2-10.3"/><path class="cls-2" d="M140.91,81.52c2.29.8-16.35-8.62-31.2-10.3"/><path class="cls-2" d="M72.82,69a28,28,0,0,1,11.9,8.7l1,6.49a6.81,6.81,0,0,1,4.38,0"/><path class="cls-2" d="M102.25,69.25s-6,1.7-11.6,8.48l-1,6.49a6.79,6.79,0,0,0-4.37,0"/><path class="cls-2" d="M45.62,88s11.86,11.06,22-3.79"/><path class="cls-2" d="M129.32,88s-11.86,11.06-22-3.79"/><path class="cls-3" d="M16.53,135.17c-.59-1.57,4.33-14.71,13.93-14.31a15.83,15.83,0,0,1,15.16,14.5c.48,6,4.8,28,7.24,29.74"/><path class="cls-2" d="M47.71,137.05s14,.94,21.91,12.24c0,0-.57-25.6,17.13-3.39"/><path class="cls-3" d="M157.33,135.17c.6-1.57-4.33-14.71-13.93-14.31a15.82,15.82,0,0,0-15.15,14.5c-.48,6-4.8,28-7.25,29.74"/><path class="cls-2" d="M126.16,137.05s-14,.94-21.91,12.24c0,0,.57-25.6-17.13-3.39"/><ellipse class="cls-4" cx="24.38" cy="133.35" rx="3.79" ry="4.38"/><ellipse class="cls-2" cx="35.81" cy="133.36" rx="3.79" ry="5.28"/><path class="cls-4" d="M37.71,148.44c-2.18-4.49-3.19-8.49-10.32-5a4.51,4.51,0,0,0-2.56,3.34l1,.52a27.33,27.33,0,0,1,4.55,2.7,95.74,95.74,0,0,1,8.5,6.82C39.82,154.63,39.23,151.57,37.71,148.44Z"/><ellipse class="cls-2" cx="149.48" cy="133.35" rx="3.79" ry="4.38"/><ellipse class="cls-2" cx="138.06" cy="133.36" rx="3.79" ry="5.28"/><path class="cls-4" d="M141,153.6c2.5-2,4.51-5.6,7.54-7.67l.22-.13a4.49,4.49,0,0,0-2.28-2.39c-7.13-3.46-8.14.54-10.32,5-1.81,3.72-2.29,7.35-.41,9.46C137.2,156.25,139.16,155.08,141,153.6Z"/><path class="cls-2" d="M113.38,123.31S97.93,127,87,118.51h-.36c-10.91,8.47-26.36,4.8-26.36,4.8"/><path class="cls-4" d="M171.26,83.4c-.06-3.26-4.55-6.23-12.45,3.94,2.58-3.11,4.31-36.34-17.52-5.82,3-4.73-11.63-48-31.2-10.3,0,0-17.41-4.38-23.34-4.38S63.4,71.22,63.4,71.22c-19.57-37.7-34.23,5.57-31.2,10.3C10.37,51,12.1,84.23,14.68,87.34c-7.9-10.17-12.5-7.2-12.45-3.94.41,29.07,10.71,50.81,26.05,65.44a4.88,4.88,0,0,1,.66.62C77,194.23,172.84,170.37,171.26,83.4Z"/><path class="cls-4" d="M158.81,87.34s-2.08,16.21-14.95,19.59c-25.82,6.8-38.35-14.68-42.26-11.29-2,1.72.74,10.54-13.62,12.42H86.11c-14.37-1.88-11.63-10.7-13.62-12.42-3.92-3.39-16.44,18.09-42.26,11.29-12.87-3.38-15.55-19.59-15.55-19.59"/><path class="cls-4" d="M32.2,81.52c-2.29.8,16.36-8.62,31.2-10.3"/><path class="cls-4" d="M140.91,81.52c2.29.8-16.35-8.62-31.2-10.3"/><path class="cls-4" d="M72.82,69a28,28,0,0,1,11.9,8.7l1,6.49a6.81,6.81,0,0,1,4.38,0"/><path class="cls-4" d="M102.25,69.25s-6,1.7-11.6,8.48l-1,6.49a6.79,6.79,0,0,0-4.37,0"/><path class="cls-4" d="M45.62,88s11.86,11.06,22-3.79"/><path class="cls-4" d="M129.32,88s-11.86,11.06-22-3.79"/><path class="cls-4" d="M16.53,135.17c-.59-1.57,4.33-14.71,13.93-14.31a15.83,15.83,0,0,1,15.16,14.5c.48,6,4.8,28,7.24,29.74"/><path class="cls-4" d="M47.71,137.05s14,.94,21.91,12.24c0,0-.57-25.6,17.13-3.39"/><path class="cls-4" d="M157.33,135.17c.6-1.57-4.33-14.71-13.93-14.31a15.82,15.82,0,0,0-15.15,14.5c-.48,6-4.8,28-7.25,29.74"/><path class="cls-4" d="M126.16,137.05s-14,.94-21.91,12.24c0,0,.57-25.6-17.13-3.39"/><ellipse class="cls-4" cx="24.38" cy="133.35" rx="3.79" ry="4.38"/><ellipse class="cls-4" cx="35.81" cy="133.36" rx="3.79" ry="5.28"/><path class="cls-4" d="M37.71,148.44c-2.18-4.49-3.19-8.49-10.32-5A4.49,4.49,0,0,0,25,146.25a15.2,15.2,0,0,1,2.44,2l.49.3a5,5,0,0,1,2,2.33c.32.37.65.73,1,1.09,2.18,2.31,5.14,3.57,7.49,5.68C40,155.51,39.45,152,37.71,148.44Z"/><ellipse class="cls-4" cx="149.48" cy="133.35" rx="3.79" ry="4.38"/><ellipse class="cls-4" cx="138.06" cy="133.36" rx="3.79" ry="5.28"/><path class="cls-4" d="M141.8,151.17c2.4-1.75,4.3-4,6.86-5.59a4.5,4.5,0,0,0-2.18-2.17c-7.13-3.46-8.14.54-10.32,5-1.4,2.87-2,5.69-1.34,7.8C137,154.38,139.45,152.89,141.8,151.17Z"/><path class="cls-4" d="M113.38,123.31S97.93,127,87,118.51h-.36c-10.91,8.47-26.36,4.8-26.36,4.8"/><circle class="cls-5" cx="86.76" cy="86.76" r="84.82"/><path class="cls-6" d="M15,86.8S8.1,51.05,32.52,81c0,0,26.6-12,40.62-12.49l11,7.71,1.43,7.48H90l1-6.49,10-8.7L141.23,81s23-30.44,17.9,5.82c0,0-9.29,39.92-56.56,5.19,1.31.91-15.78,31.32-31.22.57C71.28,94,26.34,126.51,15,86.8Z"/><path class="cls-7" d="M87.06,66.3c-5.93,0-23.34,4.38-23.34,4.38C44.15,33,29.49,76.25,32.52,81,10.69,50.46,12.42,83.69,15,86.8,7.09,76.63,2.55,82.86,2.55,82.86"/><path class="cls-7" d="M171.58,82.86S167,76.63,159.13,86.8c2.58-3.11,4.31-36.34-17.53-5.82,3-4.73-11.62-48-31.2-10.3,0,0-17.4-4.38-23.34-4.38"/><path class="cls-8" d="M159.13,86.8s-2.08,16.2-15,19.59c-25.82,6.8-38.34-14.68-42.26-11.29-2,1.72.75,10.54-13.62,12.42H86.43c-14.37-1.88-11.64-10.7-13.62-12.42-3.92-3.39-16.44,18.09-42.26,11.29C17.67,103,15,86.8,15,86.8"/><path class="cls-7" d="M32.52,81c-2.29.8,16.35-8.62,31.2-10.3"/><path class="cls-7" d="M141.23,81c2.29.8-16.35-8.62-31.2-10.3"/><path class="cls-7" d="M73.14,68.49A28,28,0,0,1,85,77.19l1,6.49a6.79,6.79,0,0,1,4.37,0"/><path class="cls-7" d="M102.57,68.71s-5.95,1.7-11.6,8.48l-1,6.49a6.81,6.81,0,0,0-4.38,0"/><path class="cls-9" d="M45.93,87.47s11.86,11.06,22-3.79"/><path class="cls-9" d="M129.64,87.47s-11.86,11.06-22-3.79"/><path class="cls-10" d="M16.85,134.63c-.6-1.57,4.33-14.71,13.93-14.31a15.82,15.82,0,0,1,15.15,14.5c.48,6,4.8,28,7.25,29.74"/><path class="cls-10" d="M48,136.51s14,.94,21.9,12.24c0,0-.56-25.6,17.13-3.39"/><path class="cls-10" d="M157.65,134.63c.6-1.57-4.33-14.71-13.93-14.31a15.82,15.82,0,0,0-15.15,14.5c-.48,6-4.8,28-7.25,29.74"/><path class="cls-10" d="M126.48,136.51s-14,.94-21.91,12.24c0,0,.56-25.6-17.13-3.39"/><ellipse class="cls-11" cx="24.7" cy="132.81" rx="3.79" ry="4.38"/><ellipse class="cls-11" cx="36.12" cy="132.82" rx="3.79" ry="5.28"/><path class="cls-11" d="M26.85,146.67c2.68,1.24,3.91,3.72,6,6a13.89,13.89,0,0,0,3,1.83,13.47,13.47,0,0,1,3,2.2c1.33-2.16.79-5.46-.85-8.84-2.18-4.49-3.2-8.5-10.33-5a4.48,4.48,0,0,0-2.31,2.49A4.85,4.85,0,0,1,26.85,146.67Z"/><ellipse class="cls-11" cx="149.8" cy="132.81" rx="3.79" ry="4.38"/><ellipse class="cls-11" cx="138.38" cy="132.82" rx="3.79" ry="5.28"/><path class="cls-11" d="M149,145a4.5,4.5,0,0,0-2.16-2.17c-7.13-3.47-8.14.54-10.32,5-1.67,3.43-2.21,6.78-.79,8.94,1.36-1.05,2.74-2.08,4.12-3.11.77-.67,1.58-1.32,2.41-2,1.17-.9,2.41-1.79,3.61-2.73A25.46,25.46,0,0,1,149,145Z"/><path class="cls-10" d="M113.7,122.77s-15.45,3.67-26.36-4.8H87c-10.91,8.47-26.36,4.8-26.36,4.8"/><polygon class="cls-4" points="75.3 29.31 71.11 36.82 71.63 45.41 64.12 41.21 55.53 41.73 59.73 34.22 59.2 25.64 66.71 29.83 75.3 29.31"/><path class="cls-4" d="M125.74,36.69,113.1,40.38a.64.64,0,0,0-.3.19l-8.65,9.93a.64.64,0,0,1-1.09-.24L99.37,37.62a.6.6,0,0,0-.19-.3l-9.93-8.65a.64.64,0,0,1,.24-1.09l12.64-3.69a.67.67,0,0,0,.3-.19l8.65-9.93a.64.64,0,0,1,1.09.24l3.69,12.64a.66.66,0,0,0,.2.3L126,35.6A.64.64,0,0,1,125.74,36.69Z"/><circle class="cls-4" cx="81.44" cy="16.25" r="4.16"/><path d="M219.84,82.11v18.28c0,2.11,1.46,2.62,1.46,4.08v.09c0,1.59-2.71,2-5.81,2s-5.84-.43-5.84-2v-.09c0-1.46,1.46-2,1.46-4.08V82.33c-2.58,6.53-6.62,16.55-7.35,18.32-.65,1.59-1.38,2-2.58,2-1,0-2.11-.3-3-2.2-.6-1.41-4.73-10.79-6.88-15.65v15.57c0,2.11,1.89,2.62,1.89,4.08v.09c0,1.46-1.68,2-3.61,2s-3.57-.56-3.57-2v-.09c0-1.46,1.89-2,1.89-4.08v-18c0-2.1-1.63-2.62-1.63-4.08v-.09c0-1.59,1.85-2,4.17-2,6,0,6.41,1.38,7.31,3.4.6,1.42,3.74,8.86,5.55,13.2,0,0,5-12.3,5.63-13.76.9-2,2.15-2.84,6.53-2.84,3.1,0,5.81.17,5.81,1.77v.08C221.3,79.53,219.84,80.05,219.84,82.11Z"/><path d="M235.27,104.47v.09c0,1.59-2.66,2-5.8,2s-5.81-.43-5.81-2v-.09c0-1.46,1.42-2,1.42-4.08V94.15c0-2.06-1.42-2.58-1.42-4V90c0-1.6,1.68-2.71,5-4,2.8-1,5.21-1.12,5.21,1.38v12.94C233.86,102.5,235.27,103,235.27,104.47ZM224.48,78.8c0-2.88,2.28-4.51,5-4.51s5,1.63,5,4.51-2.32,4.52-5,4.52S224.48,81.68,224.48,78.8Z"/><path d="M262.32,104.47v.09c0,1.59-2.71,2-5.85,2s-5.8-.43-5.8-2v-.09c0-1.46,1.46-2,1.46-4.08v-6.8c0-2.92-.86-4-2.36-4-1.3,0-2.33,1.11-2.37,3.74v7c0,2.11,1.46,2.62,1.46,4.08v.09c0,1.59-2.71,2-5.85,2s-5.8-.43-5.8-2v-.09c0-1.46,1.46-2,1.46-4.08V94.15c0-2.06-1.46-2.58-1.46-4V90c0-1.6,1.68-2.71,5-4,2.84-1,4.64-1.08,4.64,1.38v1.29a6.29,6.29,0,0,1,5.38-3.36c5.84-.26,8.64,3.57,8.64,8.34v6.67C260.86,102.5,262.32,103,262.32,104.47Z"/><path d="M289.58,102.84v.09c0,1.59-1.16,3.13-4.25,3.78-2.54.56-4.78-.26-5.29-2.24-.09-.21-.13-.38-.18-.51a7.45,7.45,0,0,1-5.93,2.92c-5.93,0-10.1-4.13-10.1-10.75s4.47-10.75,10.36-10.75a7.42,7.42,0,0,1,4.47,1.33v-4c0-2.06-1.42-2.58-1.42-4v-.09c0-1.59,1.68-2.7,5-4,2.79-1,5.2-1.12,5.2,1.37V98.75C287.43,100.86,289.58,101.38,289.58,102.84Zm-10.7-6.71c0-3.83-.91-7-3-7-1.85,0-3.05,2.36-3.05,7s1.2,7,3.05,7C278,103.14,278.88,100,278.88,96.13Z"/><path d="M313.75,85.47h-.09c-2.92,0-3.31-5.72-7.31-5.72h-2.49c-1.46,0-2.15.69-2.15,2.79v7.87h4c2.11,0,2.06-3.22,3.53-3.22h.08c1.29,0,1.46,1.8,1.46,4.94s-.17,5-1.46,5h-.08c-1.47,0-1.42-3.23-3.53-3.23h-4v6.84c0,1.81,1.76,2.45,1.76,4.08v0c0,1.55-2.32,1.76-6.1,1.76-3.14,0-5.85-.17-5.85-1.76v0c0-1.46,1.46-2,1.46-4.08V82.54c0-2.1-1.46-2.62-1.46-4.08v0c0-1.64,1.85-2.07,4.17-2.07h12c2.28,0,2.84-.73,4.3-.73,1.24,0,1.8.6,2.06,2,.3,1.55.78,4.3,1,5.67S314.65,85.47,313.75,85.47Z"/><path d="M339.81,102.84v.09c0,1.59-1.42,3.13-4.52,3.78-2.54.56-4.39-.3-5-2.24a8.48,8.48,0,0,1-.26-1,6.3,6.3,0,0,1-5.93,3.4c-5.85,0-8.6-3.83-8.6-8.6V93.55c0-2.11-1.46-2.62-1.46-4.08v-.09c0-1.59,1.2-2.88,4.77-3.65,2.92-.65,5.42-.56,5.42,1.93v11c0,2.92.81,4,2.32,4,1.33,0,2.36-1.08,2.41-3.7V93.55c0-2.11-1.46-2.62-1.46-4.08v-.09c0-1.59,1.2-2.88,4.77-3.65,2.92-.65,5.42-.56,5.42,1.93V98.75C337.66,100.86,339.81,101.38,339.81,102.84Z"/><path d="M352.49,104.47v.09c0,1.59-2.67,2-5.8,2s-5.81-.43-5.81-2v-.09c0-1.46,1.42-2,1.42-4.08V82.67c0-2.06-1.42-2.58-1.42-4v-.09c0-1.59,1.68-2.7,5-4,2.79-1,5.2-1.12,5.2,1.37v24.43C351.07,102.5,352.49,103,352.49,104.47Z"/><path d="M365.61,104.47v.09c0,1.59-2.67,2-5.81,2s-5.8-.43-5.8-2v-.09c0-1.46,1.41-2,1.41-4.08V82.67c0-2.06-1.41-2.58-1.41-4v-.09c0-1.59,1.67-2.7,5-4,2.8-1,5.21-1.12,5.21,1.37v24.43C364.19,102.5,365.61,103,365.61,104.47Z"/></g></g></svg>